<?xml version="1.0" encoding="UTF-8"?>
<svg id="abpit" xmlns="http://www.w3.org/2000/svg" viewBox="0 0 775.69 327.95">
  <defs>
    <style>
      .cls-1 {
        stroke: #fff;
        stroke-width: 11px;
      }

      .cls-1, .cls-2 {
        fill: none;
        stroke-linecap: round;
        stroke-linejoin: round;
      }

      .cls-2 {
        stroke: #177499;
        stroke-width: 5px;
      }
    </style>
  </defs>
  <path class="cls-1" d="m281.47,155.79c0-.35,13.01-54.98,13.01-54.98l12.01,54.98"/>
  <path class="cls-1" d="m314.68,155.79v-54.8s14.53-.93,14.53,10.98-14.1,15.13-14.1,15.13c0,0,15.1-3.34,15.1,12.91,0,19.4-15.53,15.78-15.53,15.78Z"/>
  <path class="cls-1" d="m347.14,100.99c-6.88,0-7.83,6.44-7.83,24.78s-.96,29.77,7.83,29.77,7.81-18.89,7.81-29.66-.93-24.89-7.81-24.89Z"/>
  <path class="cls-1" d="m363.31,100.99s-1.91,54.55,8.71,54.55,9.61-54.55,9.61-54.55"/>
  <line class="cls-1" x1="389.92" y1="100.99" x2="409.55" y2="100.99"/>
  <line class="cls-1" x1="399.74" y1="100.99" x2="399.74" y2="155.54"/>
  <line class="cls-1" x1="287.74" y1="129.15" x2="300.67" y2="129.15"/>
  <line class="cls-1" x1="352.55" y1="105.83" x2="341.92" y2="150.55"/>
  <path class="cls-2" d="m281.47,155.79c0-.35,13.01-54.98,13.01-54.98l12.01,54.98"/>
  <path class="cls-2" d="m314.68,155.79v-54.8s14.53-.93,14.53,10.98-14.1,15.13-14.1,15.13c0,0,15.1-3.34,15.1,12.91,0,19.4-15.53,15.78-15.53,15.78Z"/>
  <path class="cls-2" d="m347.14,100.99c-6.88,0-7.83,6.44-7.83,24.78s-.96,29.77,7.83,29.77,7.81-18.89,7.81-29.66-.93-24.89-7.81-24.89Z"/>
  <path class="cls-2" d="m363.31,100.99s-1.91,54.55,8.71,54.55,9.61-54.55,9.61-54.55"/>
  <line class="cls-2" x1="389.92" y1="100.99" x2="409.55" y2="100.99"/>
  <line class="cls-2" x1="399.74" y1="100.99" x2="399.74" y2="155.54"/>
  <line class="cls-2" x1="287.74" y1="129.15" x2="300.67" y2="129.15"/>
  <line class="cls-2" x1="352.55" y1="105.83" x2="341.92" y2="150.55"/>
</svg>