<?xml version="1.0" encoding="UTF-8"?>
<svg id="abpit" xmlns="http://www.w3.org/2000/svg" viewBox="0 0 775.69 327.95">
  <defs>
    <style>
      .cls-1 {
        stroke: #177499;
        stroke-width: 9.58px;
      }

      .cls-1, .cls-2 {
        fill: none;
        stroke-linecap: round;
        stroke-linejoin: round;
      }

      .cls-2 {
        stroke: #fff;
        stroke-width: 21.07px;
      }
    </style>
  </defs>
  <path class="cls-2" d="m266.86,155.12c0-.67,24.91-105.32,24.91-105.32l23,105.32"/>
  <path class="cls-2" d="m330.48,155.12V50.15s27.84-1.79,27.84,21.03-27.01,28.99-27.01,28.99c0,0,28.92-6.39,28.92,24.73,0,37.17-29.75,30.22-29.75,30.22Z"/>
  <path class="cls-2" d="m392.66,50.15c-13.17,0-14.99,12.34-14.99,47.46s-1.84,57.03,14.99,57.03,14.95-36.18,14.95-56.81-1.78-47.69-14.95-47.69Z"/>
  <path class="cls-2" d="m423.63,50.15s-3.65,104.5,16.69,104.5,18.41-104.5,18.41-104.5"/>
  <line class="cls-2" x1="474.6" y1="50.15" x2="512.22" y2="50.15"/>
  <line class="cls-2" x1="493.41" y1="50.15" x2="493.41" y2="154.65"/>
  <line class="cls-2" x1="278.87" y1="104.11" x2="303.64" y2="104.11"/>
  <line class="cls-2" x1="403.03" y1="59.42" x2="382.66" y2="145.1"/>
  <path class="cls-1" d="m266.86,155.12c0-.67,24.91-105.32,24.91-105.32l23,105.32"/>
  <path class="cls-1" d="m330.48,155.12V50.15s27.84-1.79,27.84,21.03-27.01,28.99-27.01,28.99c0,0,28.92-6.39,28.92,24.73,0,37.17-29.75,30.22-29.75,30.22Z"/>
  <path class="cls-1" d="m392.66,50.15c-13.17,0-14.99,12.34-14.99,47.46s-1.84,57.03,14.99,57.03,14.95-36.18,14.95-56.81-1.78-47.69-14.95-47.69Z"/>
  <path class="cls-1" d="m423.63,50.15s-3.65,104.5,16.69,104.5,18.41-104.5,18.41-104.5"/>
  <line class="cls-1" x1="474.6" y1="50.15" x2="512.22" y2="50.15"/>
  <line class="cls-1" x1="493.41" y1="50.15" x2="493.41" y2="154.65"/>
  <line class="cls-1" x1="278.87" y1="104.11" x2="303.64" y2="104.11"/>
  <line class="cls-1" x1="403.03" y1="59.42" x2="382.66" y2="145.1"/>
</svg>