<?xml version="1.0" encoding="UTF-8"?>
<svg id="contact" xmlns="http://www.w3.org/2000/svg" viewBox="0 0 775.69 327.95">
  <defs>
    <style>
      .cls-1 {
        stroke: #fff;
        stroke-width: 11px;
      }

      .cls-1, .cls-2 {
        fill: none;
        stroke-linecap: round;
        stroke-linejoin: round;
      }

      .cls-2 {
        stroke: #177499;
        stroke-width: 5px;
      }
    </style>
  </defs>
  <line class="cls-1" x1="363.66" y1="100.99" x2="363.66" y2="156.42"/>
  <line class="cls-1" x1="349.89" y1="100.99" x2="376.45" y2="100.99"/>
  <polyline class="cls-1" points="339.32 100.99 339.32 156.42 312.17 100.99 312.17 156.42"/>
  <path class="cls-1" d="m288.67,100.99c6.4,0,11.6,8.22,11.6,27.21s-4.91,28.22-11.6,28.22-11.03-7.99-11.03-28.22,4.63-27.21,11.03-27.21Z"/>
  <path class="cls-1" d="m266.68,100.99s-18.71,2.52-18.71,27.21,18.71,28,18.71,28"/>
  <polyline class="cls-1" points="383.99 156.42 396.69 100.99 411.37 156.42"/>
  <line class="cls-1" x1="459.95" y1="101.08" x2="459.95" y2="156.51"/>
  <line class="cls-1" x1="446.19" y1="101.08" x2="472.74" y2="101.08"/>
  <path class="cls-1" d="m436.01,100.69s-18.71,2.52-18.71,27.21,18.71,28,18.71,28"/>
  <line class="cls-1" x1="390.36" y1="128.59" x2="404.03" y2="128.59"/>
  <line class="cls-2" x1="363.66" y1="100.99" x2="363.66" y2="156.42"/>
  <line class="cls-2" x1="349.89" y1="100.99" x2="376.45" y2="100.99"/>
  <polyline class="cls-2" points="339.32 100.99 339.32 156.42 312.17 100.99 312.17 156.42"/>
  <path class="cls-2" d="m288.67,100.99c6.4,0,11.6,8.22,11.6,27.21s-4.91,28.22-11.6,28.22-11.03-7.99-11.03-28.22,4.63-27.21,11.03-27.21Z"/>
  <path class="cls-2" d="m266.68,100.99s-18.71,2.52-18.71,27.21,18.71,28,18.71,28"/>
  <polyline class="cls-2" points="383.99 156.42 396.69 100.99 411.37 156.42"/>
  <line class="cls-2" x1="459.95" y1="101.08" x2="459.95" y2="156.51"/>
  <line class="cls-2" x1="446.19" y1="101.08" x2="472.74" y2="101.08"/>
  <path class="cls-2" d="m436.01,100.69s-18.71,2.52-18.71,27.21,18.71,28,18.71,28"/>
  <line class="cls-2" x1="390.36" y1="128.59" x2="404.03" y2="128.59"/>
</svg>