<?xml version="1.0" encoding="UTF-8"?>
<svg id="contact" xmlns="http://www.w3.org/2000/svg" viewBox="0 0 775.69 327.95">
  <defs>
    <style>
      .cls-1 {
        stroke: #177499;
        stroke-width: 9.58px;
      }

      .cls-1, .cls-2 {
        fill: none;
        stroke-linecap: round;
        stroke-linejoin: round;
      }

      .cls-2 {
        stroke: #fff;
        stroke-width: 21.07px;
      }
    </style>
  </defs>
  <line class="cls-2" x1="424.29" y1="50.15" x2="424.29" y2="156.33"/>
  <line class="cls-2" x1="397.93" y1="50.15" x2="448.8" y2="50.15"/>
  <polyline class="cls-2" points="377.67 50.15 377.67 156.33 325.66 50.15 325.66 156.33"/>
  <path class="cls-2" d="m280.64,50.15c12.26,0,22.22,15.75,22.22,52.13s-9.4,54.05-22.22,54.05-21.13-15.31-21.13-54.05,8.86-52.13,21.13-52.13Z"/>
  <path class="cls-2" d="m238.52,50.15s-35.85,4.83-35.85,52.13,35.85,53.63,35.85,53.63"/>
  <polyline class="cls-2" points="463.24 156.33 487.57 50.15 515.7 156.33"/>
  <line class="cls-2" x1="608.76" y1="50.33" x2="608.76" y2="156.51"/>
  <line class="cls-2" x1="582.39" y1="50.33" x2="633.26" y2="50.33"/>
  <path class="cls-2" d="m562.89,49.58s-35.85,4.83-35.85,52.13,35.85,53.63,35.85,53.63"/>
  <line class="cls-2" x1="475.45" y1="103.03" x2="501.64" y2="103.03"/>
  <line class="cls-1" x1="424.29" y1="50.15" x2="424.29" y2="156.33"/>
  <line class="cls-1" x1="397.93" y1="50.15" x2="448.8" y2="50.15"/>
  <polyline class="cls-1" points="377.67 50.15 377.67 156.33 325.66 50.15 325.66 156.33"/>
  <path class="cls-1" d="m280.64,50.15c12.26,0,22.22,15.75,22.22,52.13s-9.4,54.05-22.22,54.05-21.13-15.31-21.13-54.05,8.86-52.13,21.13-52.13Z"/>
  <path class="cls-1" d="m238.52,50.15s-35.85,4.83-35.85,52.13,35.85,53.63,35.85,53.63"/>
  <polyline class="cls-1" points="463.24 156.33 487.57 50.15 515.7 156.33"/>
  <line class="cls-1" x1="608.76" y1="50.33" x2="608.76" y2="156.51"/>
  <line class="cls-1" x1="582.39" y1="50.33" x2="633.26" y2="50.33"/>
  <path class="cls-1" d="m562.89,49.58s-35.85,4.83-35.85,52.13,35.85,53.63,35.85,53.63"/>
  <line class="cls-1" x1="475.45" y1="103.03" x2="501.64" y2="103.03"/>
</svg>