<?xml version="1.0" encoding="UTF-8"?>
<svg xmlns="http://www.w3.org/2000/svg" viewBox="0 0 775.69 327.95">
  <defs>
    <style>
      .cls-1 {
        fill: #fff;
        stroke: #fff;
      }

      .cls-1, .cls-2, .cls-3 {
        stroke-linecap: round;
        stroke-linejoin: round;
        stroke-width: .5px;
      }

      .cls-2 {
        fill: #177499;
        stroke: #177499;
      }

      .cls-3 {
        fill: #a5abad;
        stroke: #a5abad;
      }
    </style>
  </defs>
  <g id="Layer_5" data-name="Layer 5">
    <g>
      <path class="cls-3" d="M132.36,115.52c-3.01,0-5.46-2.44-5.46-5.46,0-1.47,.59-2.79,1.53-3.77-.6-.07-1.2-.12-1.82-.12-4.36,0-8.29,1.82-11.09,4.74,.4-.09,.8-.15,1.23-.15,2.98,0,5.4,2.42,5.4,5.4s-2.42,5.4-5.4,5.4c-2.36,0-4.34-1.52-5.08-3.62-.28,1.16-.45,2.37-.45,3.62,0,8.5,6.89,15.39,15.39,15.39,3.81,0,7.29-1.39,9.97-3.68-.62,.34-1.32,.55-2.07,.55-2.4,0-4.35-1.95-4.35-4.35s1.95-4.35,4.35-4.35,4.35,1.95,4.35,4.35c0,.76-.21,1.46-.55,2.08,2.3-2.69,3.69-6.17,3.69-9.98,0-4.12-1.63-7.86-4.27-10.62-.42,2.59-2.65,4.58-5.37,4.58Z"/>
      <path class="cls-3" d="M731.12,59.94c-12.13-5.39-48.92,17.74-66.04,31.61-15.07,12.2-34.79,42.18-39.3,49.18-13.54-1.7-32.57-4.04-54.15-6.57,.98-4.76,2.89-11.8,6.27-16.8,5.55-8.22,20.76-22.94,20.76-22.94,0,0-18.36,8.82-26.64,17.02-6.04,5.98-7.99,16.51-8.61,21.76-21.03-2.44-44.01-4.99-66.46-7.28,2.2-8.78,6.13-22.44,10.8-29.33,7.22-10.63,25.37-38.43,25.37-38.43,0,0-22.26,15.41-34.67,30.04-8.06,9.51-12.43,26.02-14.5,36.42-33.86-3.32-65.31-5.83-85.41-6.16,4.18-12.42,11.46-33.11,16.2-41.19,6.97-11.89,45.24-48.71,45.24-48.71-21.2,14.74-43.96,24.78-54.61,37.43-8.05,9.55-18.15,38.88-22.61,52.68-20.01,.75-47.22,3.17-75.73,6.22,4.67-12.57,11.76-30.56,16.4-37.24,7.43-10.7,45.66-50.85,45.66-50.85,0,0-41.31,23.92-54.34,40.71-9.29,11.97-18.76,36.19-23.43,49.11-22.07,2.49-44.25,5.24-63.91,7.78,4.97-11.2,12.26-26.22,19.5-36.17,12.81-17.62,31.71-37.63,31.71-37.63,0,0-36.57,24.3-47.16,37.36-7.3,9-16.08,27.81-20.83,38.64-20.62,2.74-36.85,5.01-44.6,6.11,.74-4.11,1.79-9.99,2.74-15.28,1.68-9.36,1.58-45.23-5.79-54.17-7.36-8.94-46.32,14.45-66.93,31.17-24.72,20.05-49.31,54.56-49.31,54.56l40.5,21.56-40.5,5.79s35.76,29.98,58.91,39.45,72.58,18.93,78.37,15.25,6.84-39.97,2.1-48.91c-4.17-7.88-15.35-29.32-18.42-35.93,7.26-.55,22.32-2.1,41.42-4.13,4.16,9.71,14.17,32.04,22.33,42.11,10.59,13.06,47.16,37.36,47.16,37.36,0,0-18.9-20-31.71-37.63-8.98-12.35-18.03-32.5-22.65-43.46,20.29-2.18,43.52-4.71,66.27-7.14,4.32,12.16,14.36,38.62,24.22,51.32,13.03,16.79,54.34,40.71,54.34,40.71,0,0-38.23-40.15-45.66-50.85-5.37-7.73-14.02-30.62-18.4-42.72,30.66-3.22,59.05-6.05,76.45-7.33,3.45,10.95,14.95,46.07,23.9,56.7,10.66,12.65,33.41,22.7,54.61,37.43,0,0-38.27-36.82-45.24-48.71-5.45-9.29-14.26-35.25-17.85-46.15,13.92,.04,47.7,1.93,86.08,4.41,1.45,8.92,5.81,30.4,15.48,41.81,12.41,14.63,34.67,30.04,34.67,30.04,0,0-18.15-27.8-25.37-38.43-5.3-7.8-9.65-24.31-11.59-32.55,22.35,1.48,45.63,3.09,67.02,4.61,.25,3.49,1.66,16.99,8.83,24.1,8.28,8.2,26.64,17.02,26.64,17.02,0,0-15.21-14.71-20.76-22.94-3.57-5.29-5.5-12.85-6.43-17.59,20.94,1.5,39.62,2.87,53.16,3.87,0,0,13.78,41.24,27.14,58.75,13.36,17.52,43.64,48.69,56.71,46.31,13.06-2.38,4.44-51.08,3.27-53.89-2.33-5.58-38.65-40.5-57.71-50.69,21.12-5.67,63.98-30.65,67.53-35.48,1.81-2.45,21.69-47.74,9.56-53.13ZM146.95,149.44c0,5.26-4.27,9.53-9.53,9.53s-9.53-4.27-9.53-9.53c0-1.4,.31-2.73,.86-3.93-.06,0-.11,0-.17,0-11.65,0-21.09-9.44-21.09-21.09s9.44-21.09,21.09-21.09,21.09,9.44,21.09,21.09c0,6.69-3.12,12.64-7.98,16.5,3.12,1.57,5.26,4.79,5.26,8.51Zm549.65,49.8c5.34,6.98-42.16-39.34-42.16-39.34,0,0,36.81,32.36,42.16,39.34Zm-12.17,20.04c-9.5-5.94-39.78-55.31-39.78-55.31l39.78,55.31Zm-36.39-87.79s41.09-40.82,51.72-44.35l-51.72,44.35Zm58.82-22c-6.84,5.52-50.26,28.27-50.26,28.27,0,0,57.1-33.78,50.26-28.27Z"/>
    </g>
  </g>
  <g id="Layer_4" data-name="Layer 4">
    <g>
      <path class="cls-1" d="M335.65,183.52c-3.3,0-6.44-1.14-9.35-3.4-9.99-7.76-10.15-19.06-10.15-19.54l-.08-20.96-2.23,2.14-.09,.08c-1.2,.98-2.53,2.42-2.74,2.96l-.06,.22-.07,.16c-.5,1.16-1.01,3.03-1.38,5.13-.13,.74-.31,1.86-.47,2.86-.26,1.69-1.7,2.92-3.41,2.92-1.61,0-2.99-1.09-3.36-2.66-.57-2.44-1.78-7.1-2.95-11.6-1.35-5.18-2.62-10.08-3.07-12.15-.21-.99,.03-2.01,.66-2.8,.64-.8,1.59-1.25,2.6-1.25s1.98,.47,2.6,1.29c.48,.63,.8,1.21,1.05,1.67,.41,.74,.68,1.23,1.71,2.09,1.5,1.26,1.88,1.33,1.95,1.33,.15,0,.44-.06,.66-.11,1.25-.76,5.19-4.63,8.55-8.21l-.4-21.43c-.33-.12-.64-.26-.96-.42-5.81-2.92-7.42-11.05-3.67-18.5,2.78-5.51,7.78-9.07,12.75-9.07,1.53,0,2.98,.34,4.3,1.01,2.89,1.46,4.89,4.39,5.48,8.04,.54,3.35-.1,7.07-1.81,10.46-.89,1.77-2.05,3.39-3.4,4.75l.07,13.51,3.33-3.1c1.77-2.01,4.79-5.55,5.62-6.84,1.15-1.77,1.77-3.42,2.26-4.75,.29-.76,.53-1.42,.84-1.99,.63-1.17,1.83-1.89,3.15-1.89,.99,0,1.95,.41,2.63,1.13,.68,.72,1.02,1.67,.96,2.67-.24,3.84-1.48,22.21-1.76,26.29-.12,1.76-1.59,3.13-3.35,3.13-.85,0-1.67-.32-2.29-.9-.77-.72-1.34-1.78-2.19-3.45-.3-.59-.6-1.19-.83-1.56-.15-.24-.29-.42-.4-.55-.84,.79-2.95,2.79-7.93,7.56-.24,7.98-.64,25.82-.18,29.95,.44,3.86,1.37,9.25,4.41,11.46,.39,.28,.78,.51,1.19,.69l5.42-4.12c1.57-1.2,6.02-4.71,7.72-6.58,2.26-2.48,7.28-8.12,7.28-8.12l6.72-7.55-1.52,9.99c-.04,.23-.89,5.73-3.07,11.1-2.05,5.03-3.4,8.36-6.42,11.65-2,2.18-7.41,7.26-14.32,7.26Zm-13.04-97.45c-.48,.27-1.25,.94-1.88,2.18-.63,1.24-.7,2.27-.63,2.81,.47-.27,1.25-.94,1.88-2.19,.63-1.24,.7-2.26,.63-2.81Z"/>
      <path class="cls-1" d="M341.08,168.14l4.98,.61s-8.04,8.04-15.16,2.87c-3.71-2.7-5-8.02-5.63-13.55-.63-5.53,.2-31.61,.2-31.61,4.46-4.27,8.48-8.1,9.22-8.78,1.8-1.64,3.6-.15,4.63,1.53,.77,1.25,1.8,3.73,2.51,4.39,.22,.21,.58,.07,.6-.23,.27-4.01,1.52-22.41,1.76-26.27,.04-.62-.8-.87-1.1-.32-.65,1.22-1.26,3.92-3.23,6.96-1.29,1.99-5.99,7.31-5.99,7.31l-8.44,7.87-.11-21.67c1.45-1.23,2.75-2.86,3.73-4.8,2.95-5.86,1.9-12.33-2.34-14.47-4.24-2.14-10.07,.88-13.02,6.73-2.95,5.86-1.9,12.33,2.34,14.47,.81,.41,1.67,.62,2.56,.67l.46,25s-8.72,9.47-10.66,9.93c-1.94,.46-2.78,.45-5.45-1.79-2.18-1.83-2.17-2.86-3.22-4.24-.2-.26-.62-.02-.55,.3,.83,3.83,4.79,18.49,6.01,23.7,.11,.48,.81,.45,.88-.04,.16-1.02,.34-2.17,.48-2.92,.18-1.04,.71-3.8,1.58-5.8,.48-1.81,3.73-4.46,3.73-4.46,0,0,3.41-3.27,7.2-6.9l.11,27.95s.04,10.23,8.99,17.18c8.61,6.69,16.81-.46,19.62-3.52,2.6-2.83,3.78-5.65,5.85-10.75s2.88-10.42,2.88-10.42c0,0-5.04,5.65-7.3,8.14-2.26,2.49-8.12,6.95-8.12,6.95Zm-22.44-74.19c-1.82-.92-2.09-4.08-.58-7.06s4.2-4.65,6.02-3.73c1.82,.92,2.09,4.08,.58,7.06s-4.2,4.65-6.02,3.73Z"/>
      <path class="cls-1" d="M377.74,175.25c-.95,0-1.81-.11-2.55-.22-4.73-.68-7.88-3.42-9.89-8.63-1.86-4.81-1.8-19.45-.3-22.22,.57-1.05,1.67-1.7,2.87-1.7,1.5,0,3.21,0,14.43,13.93,.28,.35,.48,.74,.61,1.15,4.04-5.43,9.17-13.79,12.39-20.29,4.47-9.02,6.27-18.77,4.29-23.2-.32-.71-.57-.87-.57-.87-.97,.01-3.07,1.76-3.96,2.5-.48,.4-.9,.74-1.23,.98-.16,.14-.81,.88-1.33,1.47-3.06,3.45-8.75,9.87-15.23,9.87-2.18,0-4.21-.71-6.04-2.1-11.41-8.68,1.27-30.11,3.93-34.31,4.47-7.08,14.88-14.1,18.51-16.21,.62-.36,1.31-.55,2.02-.55,1.31,0,2.54,.64,3.29,1.72,.75,1.07,.93,2.44,.48,3.67l-8.21,23.69c3.29-1.26,6.6-1.9,9.9-1.9,2.25,0,4.5,.31,6.69,.91,3.65,1.01,6.31,3,7.89,5.91,3.22,5.94,.75,13.7-.3,17.01-4.29,13.48-11.67,26.7-21.37,38.22-6.67,7.92-11.39,11.15-16.3,11.15,0,0,0,0,0,0Zm-.43-12.44c.17,.08,.36,.16,.57,.21,.26-.13,.55-.34,.88-.62l-1.45,.42Zm6.65-57.24c-.24,.7-.47,1.45-.69,2.25-.05,.18-.1,.35-.14,.52,.65-.46,1.3-.89,1.96-1.3-.39-.35-.78-.82-1.12-1.47Z"/>
      <path class="cls-1" d="M407.03,105.84c-9.03-2.5-17.09,1.29-22.52,5.19-2.91,2.09-3.93,3.66-5.03,3.15-.74-.34-.12-3.43,.9-7.17,1.4-5.1,3.38-8.48,3.38-8.48,.39-.78,.66-.88,.9-.04l1.87,5.49c.61,1.26,1.17,1.24,1.59-.21l8.52-24.56c.32-.89-.64-1.71-1.46-1.23-4.13,2.4-13.54,8.98-17.48,15.21-5.33,8.44-12.52,24.34-4.65,30.32,7.87,5.98,17.1-7.9,19.05-9.3,1.96-1.39,7.53-7.42,10.24-1.39,2.71,6.03-.14,17.31-4.34,25.76-4.19,8.46-15.95,28.01-20.18,27.45s-5.31-4.97-5.31-4.97l7.24-2.09c.3-.09,.42-.45,.22-.69-2.09-2.59-11.52-14.17-12.33-12.68-.91,1.67-1.2,15.43,.46,19.71s3.93,6.22,7.52,6.74c3.59,.52,7.19,.71,16.12-9.9,8.93-10.61,16.48-23.56,20.81-37.2,1.48-4.65,4.95-16.23-5.52-19.13Z"/>
      <path class="cls-1" d="M239.5,196.92c-1.2,0-2.31-.65-2.89-1.69-.59-1.04-.57-2.32,.05-3.34,2.75-4.55,4.77-8.42,5.42-10.38,1.18-5.76,2.96-92.22,2.56-96.55-.16-1.34-3.3-5.69-6.72-9.29l-.1-.1-.09-.11c-.83-1.05-.98-2.45-.39-3.65,.58-1.19,1.8-1.96,3.11-1.96,.46,0,.92,.09,1.35,.27l19.22,8.1c1.27,.54,2.12,1.72,2.21,3.1s-.58,2.67-1.77,3.37l-.34,.2-.38,.11c-1.38,.4-3.02,1.2-3.57,1.74-.43,2.42-.71,13.17-.74,27.56,8.69-10.61,13.56-17.66,13.99-19.46,.2-3.41-1.51-6.37-1.53-6.4l-.2-.34-.11-.38c-.31-1.09-.09-2.23,.59-3.13,.67-.89,1.74-1.42,2.85-1.42,.48,0,.95,.1,1.39,.28l17.68,7.45c1.36,.57,2.21,1.9,2.17,3.37-.04,1.48-.96,2.75-2.35,3.25l-.29,.1-.31,.04c-3.06,.44-7,1.54-8.01,2.49-1.29,1.27-10.51,13.81-22.57,30.71,10.64,10.19,27.35,25.66,30.63,27.28,4.68,2.31,10.25,3.48,10.3,3.49l.18,.04,.18,.06c1.36,.46,2.29,1.68,2.37,3.12,.08,1.43-.71,2.75-2.01,3.36l-20.1,9.42c-.47,.22-.98,.34-1.5,.34h0c-1.08,0-2.08-.48-2.76-1.33-.67-.84-.92-1.92-.69-2.98l.11-.49,.26-.42c1.14-1.88,2.53-5.4,1.97-7.08-1.31-2.19-12.05-10.97-22.61-18.98-.25,13.46,.02,27.53,.95,30.54,1.29,.9,4.67,1.99,7.32,2.5l9.07,1.77-32.51,15.1c-.45,.21-.92,.31-1.4,.31Zm17.62-19.41h0Z"/>
      <path class="cls-1" d="M300.07,164.57s-5.93-1.22-11.03-3.74c-5.1-2.52-32.7-29.08-32.7-29.08-.31-.31-.36-.79-.11-1.15,3.11-4.37,21.84-30.58,24.02-32.64,2.38-2.25,9.65-3.27,9.65-3.27,.48-.17,.5-.84,.03-1.04l-17.68-7.45c-.45-.19-.92,.22-.78,.69,0,0,2.24,3.74,1.94,8.21-.26,3.93-15.55,22.22-19.2,26.53-.27,.32-.78,.13-.78-.29-.02-6.17-.05-34.16,1.02-35.98,1.19-2.05,5.48-3.26,5.48-3.26,.45-.27,.4-.93-.08-1.13l-19.21-8.1c-.44-.19-.84,.34-.55,.72,0,0,7.09,7.47,7.53,11.02,.43,3.56-1.4,93.82-2.67,97.73-1.01,3.11-4.39,8.87-5.73,11.08-.16,.27,.13,.59,.41,.45l24.13-11.21s-6.8-1.32-9.1-3.5c-2.48-2.35-1.48-37.45-1.48-37.45,0-.4,.47-.62,.78-.37,0,0,26.02,19.34,27.49,23.16,1.47,3.83-2.18,9.79-2.18,9.79-.1,.43,.34,.78,.74,.6l10.08-4.73,10.02-4.7c.4-.19,.37-.78-.05-.92Z"/>
      <path class="cls-1" d="M449.87,181.25c-5.92,0-14.5-4.01-19.34-12.8-4.88-8.86-6.91-19-6.58-32.87,.33-14.05,1.43-21.03,1.58-21.93,.29-2.4,2.59-20.3,7.86-26.86,3.62-4.52,7.4-6.81,11.23-6.81,.7,0,1.41,.08,2.09,.25,3.34,.8,5.61,2.92,7.35,6.87,1.44,3.28,4.62,11.28,7.16,18.79,2.26,6.68,3.18,10.82,3.35,11.67,.34,1.21,.21,2.52-.39,3.63-.63,1.18-1.73,2.06-3.02,2.41l-5.85,1.59c-6.16,1.5-15.69,4.71-17.82,7.21-2.31,2.71-2.13,12.48-1.37,17.2,.43,2.7,3.21,12.19,4.23,14.15,1.92,3.67,4.1,5.4,8.06,6.38,.74,.18,1.41,.28,1.98,.28,1.55,0,2.66-.55,4.77-3.65,1.68-2.47,2.66-5.03,3.23-7.11l-12.53,3.9,17.59-25.51c.65-.95,1.73-1.52,2.88-1.52,.94,0,1.86,.38,2.52,1.05,.63,.64,.99,1.49,1,2.39,.08,1.75,.61,14.84-.39,19.38-.14,.61-.26,1.18-.37,1.72-.73,3.44-1.25,5.92-3.54,10.01-2.27,4.05-5.71,10.18-15.68,10.18Zm-11.32-73.91c-1.06,4.16-1.8,8.6-1.86,10.93,1.8-.32,4.47-.96,6.01-1.6,2.2-.91,6.7-2.74,7.99-3.27l-3.22-10.38c-1.06-2.91-2.45-6.28-3.43-8.25-.44,.52-.91,1.11-1.2,1.49-.85,1.08-2.89,6.59-4.28,11.08Z"/>
      <path class="cls-1" d="M465.92,139.73l-12.66,18.36,8.92-2.78s-.23,6.76-4.54,13.12c-2.58,3.8-4.91,5.85-9.95,4.6-5.03-1.25-7.8-3.7-10-7.9-1.28-2.44-4.1-12.35-4.54-15.07-.43-2.72-1.66-15.26,2.05-19.62s19.31-8.15,19.31-8.15l5.85-1.59c1.04-.28,1.63-1.38,1.28-2.4,0,0-.83-4.18-3.29-11.45-2.46-7.27-5.58-15.18-7.06-18.55s-3.1-4.64-5.3-5.16c-1.56-.37-5.34-.64-10.28,5.52-4.94,6.16-7.23,25.41-7.23,25.41,0,0-1.21,6.86-1.55,21.57-.34,14.71,2.11,23.92,6.21,31.36,4.1,7.44,11.49,11.25,16.71,11.25,7.88,0,10.65-4.35,13.06-8.65,2.41-4.3,2.64-6.56,3.6-10.91,.96-4.35,.32-18.66,.32-18.66,0-.51-.64-.72-.93-.3Zm-30.26-33.21s3.03-9.85,4.8-12.12c1.77-2.26,3.05-3.79,4.47-3.5,1.41,.29,5.38,11.16,5.38,11.16l3.41,10.99c.3,1.24-.36,2.52-1.55,2.99,0,0-5.74,2.34-8.32,3.4s-7.93,2.2-9.09,2.03c-2.83-.41,.9-14.94,.9-14.94Z"/>
      <path class="cls-1" d="M513.4,185.7c-2.8,0-5.96-.5-9.95-1.58-7.89-2.13-14.3-8.19-17.41-11.61-3.74-4.11-4.96-9.75-5.72-15.24-.82-5.89-1.34-43.93-.65-47.88,.05-.32,.11-.68,.18-1.1,.67-4.26,2.07-13.13,8-19.9,5.96-6.81,10.57-10.03,16.42-11.49,1.36-.34,2.73-.51,4.07-.51,4.82,0,8.38,2.23,10.51,3.56,3.36,2.1,7.27,7.91,8.54,12.69,1.95,7.32,1.95,69.47,1.46,74.5-.54,5.57-1.69,12.38-5.82,15.56-2.62,2.02-5.76,3-9.62,3h0Zm-14.14-32.38c-1,2.18-2.45,6.13-2.45,7.88,0,1.46,2.52,5.04,10.3,6.81,3.14,.71,6.18,1.38,7.24,1.38h0s.08-.05,.12-.08c.15-.09,.3-.18,.48-.28,.78-.44,1.26-1.99,1.31-4.24,.07-3.12,.34-32.05,.26-47.07l-17.28,35.6Zm7.51-57.8c-1.32,0-2.74,.32-3.7,.82-1.97,1.04-7.81,4.93-9.65,7.19-1.39,1.7-1.65,2.8-2.14,4.8-.13,.52-.26,1.08-.43,1.68-.3,1.36-.55,10.86-.28,32.96l20.44-41.97c.28-1.16,.39-2.99-.13-3.73q-.85-1.22-2.38-1.53l-.6-.12c-.22-.05-.59-.1-1.14-.1Z"/>
      <path class="cls-1" d="M524.48,93.41c-1.09-4.09-4.61-9.28-7.23-10.92-2.63-1.64-6.59-4.1-12.26-2.68-4.7,1.17-8.84,3.66-14.89,10.56-5.93,6.77-6.88,16.1-7.48,19.53s-.16,41,.67,46.95c.83,5.95,2.08,10.46,4.97,13.63s8.89,8.82,15.98,10.74c7.57,2.04,12.98,2.16,16.95-.9,2.95-2.27,4.1-7.64,4.66-13.47,.56-5.83,.33-67.05-1.37-73.45Zm-35.81,57.55c-1.06-.89-1.03-2.55-1.06-5.36-.03-2.81-.47-33.31,.36-36.37,.83-3.06,.9-4.86,3.14-7.59,2.24-2.74,8.54-6.88,10.58-7.95,2.04-1.08,4.95-1.41,6.86-1,2.19,.47,3.11,.44,4.81,2.86s.49,6.51,.49,6.51l-22.06,45.29s-2.05,4.51-3.11,3.62Zm30.61,13.9c-.09,3.93-1.26,5.9-2.84,6.79-1.58,.89-1.07,1.32-9.99-.71-8.92-2.03-12.63-6.52-12.63-9.73s2.75-9.19,2.75-9.19l19.68-40.56s2.44-4.75,3.03-3.13c.59,1.62,.07,53.42,0,56.53Z"/>
    </g>
  </g>
  <g id="Layer_2" data-name="Layer 2">
    <g>
      <path class="cls-2" d="M339.92,103.99c-1.29,1.99-5.99,7.31-5.99,7.31l-8.44,7.87-.11-21.67c1.45-1.23,2.75-2.86,3.73-4.8,2.95-5.86,1.9-12.33-2.34-14.47-4.24-2.14-10.07,.88-13.02,6.73-2.95,5.86-1.9,12.33,2.34,14.47,.81,.41,1.67,.62,2.56,.67l.46,25s-8.72,9.47-10.66,9.93-2.78,.45-5.45-1.79c-2.18-1.83-2.17-2.86-3.22-4.24-.2-.26-.62-.02-.55,.3,.83,3.83,4.79,18.49,6.01,23.7,.11,.48,.81,.45,.88-.04,.16-1.02,.34-2.17,.48-2.92,.18-1.04,.71-3.8,1.58-5.8,.48-1.81,3.73-4.46,3.73-4.46,0,0,3.41-3.27,7.2-6.9l.11,27.95s.04,10.23,8.99,17.18,16.81-.46,19.62-3.52c2.6-2.83,3.78-5.65,5.85-10.75s2.88-10.42,2.88-10.42c0,0-5.04,5.65-7.3,8.14s-8.12,6.95-8.12,6.95l4.98,.61s-8.04,8.04-15.16,2.87c-3.71-2.7-5-8.02-5.63-13.55s.2-31.61,.2-31.61c4.46-4.27,8.48-8.1,9.22-8.78,1.8-1.64,3.6-.15,4.63,1.53,.77,1.25,1.8,3.73,2.51,4.39,.22,.21,.58,.07,.6-.23,.27-4.01,1.52-22.41,1.76-26.27,.04-.62-.8-.87-1.1-.32-.65,1.22-1.26,3.92-3.23,6.96Zm-21.79-16.83c1.5-2.98,4.2-4.65,6.02-3.73,1.82,.92,2.09,4.08,.58,7.06s-4.2,4.65-6.02,3.73c-1.82-.92-2.09-4.08-.58-7.06Z"/>
      <path class="cls-2" d="M396.71,79.48c.32-.89-.64-1.71-1.46-1.23-4.13,2.4-13.54,8.98-17.48,15.21-5.33,8.44-12.52,24.34-4.65,30.32s17.1-7.9,19.05-9.3,7.53-7.42,10.24-1.39-.14,17.31-4.34,25.76-15.95,28.01-20.18,27.45-5.31-4.97-5.31-4.97l7.24-2.09c.3-.09,.42-.45,.22-.69-2.09-2.59-11.52-14.17-12.33-12.68-.91,1.67-1.2,15.43,.46,19.71s3.93,6.22,7.52,6.74,7.19,.71,16.12-9.9,16.48-23.56,20.81-37.2c1.48-4.65,4.95-16.23-5.52-19.13-9.03-2.5-17.09,1.29-22.52,5.19-2.91,2.09-3.93,3.66-5.03,3.15-.74-.34-.12-3.43,.9-7.17,1.4-5.1,3.38-8.48,3.38-8.48,.39-.78,.66-.88,.9-.04l1.87,5.49c.61,1.26,1.17,1.24,1.59-.21l8.52-24.56Z"/>
      <path class="cls-2" d="M240.71,73.14l19.21,8.1c.48,.2,.53,.86,.08,1.13,0,0-4.29,1.22-5.48,3.26-1.06,1.82-1.03,29.81-1.02,35.98,0,.41,.51,.6,.78,.29,3.65-4.31,18.94-22.6,19.2-26.53,.29-4.47-1.94-8.21-1.94-8.21-.13-.47,.34-.88,.78-.69l17.68,7.45c.47,.2,.45,.87-.03,1.04,0,0-7.26,1.03-9.65,3.27-2.18,2.06-20.91,28.27-24.02,32.64-.25,.36-.21,.84,.11,1.15,0,0,27.6,26.55,32.7,29.08s11.03,3.74,11.03,3.74c.42,.14,.46,.73,.05,.92l-10.02,4.7-10.08,4.73c-.4,.19-.84-.17-.74-.6,0,0,3.65-5.96,2.18-9.79s-27.49-23.16-27.49-23.16c-.31-.25-.78-.03-.78,.37,0,0-1,35.1,1.48,37.45,2.3,2.18,9.1,3.5,9.1,3.5l-24.13,11.21c-.29,.13-.58-.18-.41-.45,1.34-2.21,4.72-7.97,5.73-11.08,1.26-3.91,3.1-94.18,2.67-97.73s-7.53-11.02-7.53-11.02c-.3-.38,.1-.9,.55-.72Z"/>
      <path class="cls-2" d="M466.92,140.29c0-.51-.64-.72-.93-.3l-12.66,18.36,8.92-2.78s-.23,6.76-4.54,13.12c-2.58,3.8-4.91,5.85-9.95,4.6-5.03-1.25-7.8-3.7-10-7.9-1.28-2.44-4.1-12.35-4.54-15.07-.43-2.72-1.66-15.26,2.05-19.62s19.31-8.15,19.31-8.15l5.85-1.59c1.04-.28,1.63-1.38,1.28-2.4,0,0-.83-4.18-3.29-11.45-2.46-7.27-5.58-15.18-7.06-18.55s-3.1-4.64-5.3-5.16c-1.56-.37-5.34-.64-10.28,5.52-4.94,6.16-7.23,25.41-7.23,25.41,0,0-1.21,6.86-1.55,21.57-.34,14.71,2.11,23.92,6.21,31.36,4.1,7.44,11.49,11.25,16.71,11.25,7.88,0,10.65-4.35,13.06-8.65,2.41-4.3,2.64-6.56,3.6-10.91,.96-4.35,.32-18.66,.32-18.66Zm-31.19-33.51s3.03-9.85,4.8-12.12c1.77-2.26,3.05-3.79,4.47-3.5,1.41,.29,5.38,11.16,5.38,11.16l3.41,10.99c.3,1.24-.36,2.52-1.55,2.99,0,0-5.74,2.34-8.32,3.4s-7.93,2.19-9.09,2.03c-2.83-.41,.9-14.94,.9-14.94Z"/>
      <path class="cls-2" d="M524.55,93.67c-1.09-4.09-4.61-9.28-7.23-10.92-2.63-1.64-6.59-4.1-12.26-2.68-4.7,1.17-8.84,3.66-14.89,10.56-5.93,6.77-6.88,16.1-7.48,19.53s-.16,41,.67,46.95c.83,5.95,2.08,10.46,4.97,13.63s8.89,8.82,15.98,10.74c7.57,2.04,12.98,2.16,16.95-.9,2.95-2.27,4.1-7.64,4.66-13.47,.56-5.83,.33-67.05-1.37-73.45Zm-32.7,53.93s-2.05,4.51-3.11,3.62c-1.06-.89-1.03-2.55-1.06-5.36-.03-2.81-.47-33.31,.36-36.37,.83-3.06,.9-4.86,3.14-7.59,2.24-2.74,8.54-6.88,10.58-7.95,2.04-1.08,4.95-1.41,6.86-1,2.19,.47,3.11,.44,4.81,2.86s.49,6.51,.49,6.51l-22.06,45.29Zm27.5,17.51c-.09,3.93-1.26,5.9-2.84,6.79s-1.07,1.32-9.99-.71c-8.92-2.03-12.63-6.52-12.63-9.73s2.75-9.19,2.75-9.19l19.68-40.56s2.44-4.75,3.03-3.13,.07,53.42,0,56.53Z"/>
    </g>
  </g>
</svg>