<?xml version="1.0" encoding="UTF-8"?>
<svg id="works" xmlns="http://www.w3.org/2000/svg" viewBox="0 0 775.69 327.95">
  <defs>
    <style>
      .cls-1 {
        stroke: #fff;
        stroke-width: 11px;
      }

      .cls-1, .cls-2 {
        fill: none;
        stroke-linecap: round;
        stroke-linejoin: round;
      }

      .cls-2 {
        stroke: #177499;
        stroke-width: 5px;
      }
    </style>
  </defs>
  <path class="cls-1" d="m349.95,156.2v-55.21s15.83-.07,15.83,11.09-13.99,11.35-13.99,11.35l17.81,32.78"/>
  <line class="cls-1" x1="377.79" y1="100.99" x2="377.79" y2="156.2"/>
  <polyline class="cls-1" points="394.54 100.99 379.63 128.59 396.76 156.33"/>
  <path class="cls-1" d="m332.21,100.92c-6.32,0-8.27,11.63-8.27,27.17s1.94,28.17,8.27,28.17,6.94-15.05,6.94-28.17-.62-27.17-6.94-27.17Z"/>
  <polyline class="cls-1" points="283.44 101.54 291.44 156.33 300.48 128.59 309.42 156.33 316.35 100.99"/>
  <path class="cls-1" d="m418.43,100.99s-16.63.47-16.63,13.68,19.92,7.25,19.92,24.42-17.65,17.24-17.65,17.24"/>
  <path class="cls-2" d="m349.95,156.2v-55.21s15.83-.07,15.83,11.09-13.99,11.35-13.99,11.35l17.81,32.78"/>
  <line class="cls-2" x1="377.79" y1="100.99" x2="377.79" y2="156.2"/>
  <polyline class="cls-2" points="394.54 100.99 379.63 128.59 396.76 156.33"/>
  <path class="cls-2" d="m332.21,100.92c-6.32,0-8.27,11.63-8.27,27.17s1.94,28.17,8.27,28.17,6.94-15.05,6.94-28.17-.62-27.17-6.94-27.17Z"/>
  <polyline class="cls-2" points="283.44 101.54 291.44 156.33 300.48 128.59 309.42 156.33 316.35 100.99"/>
  <path class="cls-2" d="m418.43,100.99s-16.63.47-16.63,13.68,19.92,7.25,19.92,24.42-17.65,17.24-17.65,17.24"/>
</svg>