<?xml version="1.0" encoding="UTF-8"?>
<svg id="works" xmlns="http://www.w3.org/2000/svg" viewBox="0 0 775.69 327.95">
  <defs>
    <style>
      .cls-1 {
        stroke: #177499;
        stroke-width: 9.58px;
      }

      .cls-1, .cls-2 {
        fill: none;
        stroke-linecap: round;
        stroke-linejoin: round;
      }

      .cls-2 {
        stroke: #fff;
        stroke-width: 21.07px;
      }
    </style>
  </defs>
  <path class="cls-2" d="m398.03,155.91V50.15s30.33-.12,30.33,21.24-26.79,21.74-26.79,21.74l34.12,62.79"/>
  <line class="cls-2" x1="451.36" y1="50.15" x2="451.36" y2="155.91"/>
  <polyline class="cls-2" points="483.46 50.15 454.9 103.03 487.72 156.17"/>
  <path class="cls-2" d="m364.06,50.02c-12.11,0-15.85,22.29-15.85,52.05s3.71,53.97,15.85,53.97,13.29-28.83,13.29-53.97-1.19-52.05-13.29-52.05Z"/>
  <polyline class="cls-2" points="270.64 51.21 285.95 156.17 303.28 103.03 320.39 156.17 333.68 50.15"/>
  <path class="cls-2" d="m529.21,50.15s-31.85.89-31.85,26.21,38.17,13.9,38.17,46.78-33.81,33.03-33.81,33.03"/>
  <path class="cls-1" d="m398.03,155.91V50.15s30.33-.12,30.33,21.24-26.79,21.74-26.79,21.74l34.12,62.79"/>
  <line class="cls-1" x1="451.36" y1="50.15" x2="451.36" y2="155.91"/>
  <polyline class="cls-1" points="483.46 50.15 454.9 103.03 487.72 156.17"/>
  <path class="cls-1" d="m364.06,50.02c-12.11,0-15.85,22.29-15.85,52.05s3.71,53.97,15.85,53.97,13.29-28.83,13.29-53.97-1.19-52.05-13.29-52.05Z"/>
  <polyline class="cls-1" points="270.64 51.21 285.95 156.17 303.28 103.03 320.39 156.17 333.68 50.15"/>
  <path class="cls-1" d="m529.21,50.15s-31.85.89-31.85,26.21,38.17,13.9,38.17,46.78-33.81,33.03-33.81,33.03"/>
</svg>